<svg width="117" height="90" viewBox="0 0 117 90" fill="none" xmlns="http://www.w3.org/2000/svg">
<path d="M0.795873 23.1131C0.886616 22.7536 1.00761 22.3941 1.09835 22.0345C2.24776 17.997 4.9398 15.2315 9.26521 13.7934C9.90041 13.5722 10.1424 13.3233 10.1121 12.7149C10.0517 11.1386 10.0819 9.53461 10.1121 7.95829C10.1726 3.94836 13.5906 0.768062 17.9463 0.740408C20.0334 0.712753 22.1507 0.629789 24.1773 0.933991C27.8373 1.45943 30.4386 4.41849 30.4991 7.79236C30.5293 9.53461 30.4991 11.3045 30.4991 13.1574C32.2232 13.1574 33.8263 13.185 35.4597 13.1297C35.7319 13.1297 36.1251 12.7426 36.2159 12.466C36.9116 10.7238 37.5165 8.92621 38.182 7.18396C39.7246 3.14637 43.4148 0.740408 48.0729 0.740408C55.2416 0.712753 62.4406 0.712753 69.6093 0.740408C74.2976 0.740408 77.9576 3.14637 79.5002 7.18396C80.1354 8.84324 80.7706 10.5025 81.3151 12.1895C81.5571 12.9361 81.92 13.185 82.8275 13.185C89.8147 13.1574 96.8019 13.1574 103.819 13.1574C111.593 13.1574 116.917 18.0246 116.917 25.1319C116.917 42.7203 116.917 60.3087 116.917 77.8971C116.917 85.0044 111.563 89.8993 103.819 89.8993C73.8439 89.8993 43.8685 89.8716 13.8931 89.9269C6.63367 89.9546 1.58231 85.1703 0.916863 80.2201C0.916863 80.1371 0.82612 80.0542 0.765625 79.9436C0.795873 61.0001 0.795873 42.0566 0.795873 23.1131ZM58.8411 83.6769C73.8439 83.6769 88.8467 83.6769 103.88 83.6769C107.842 83.6769 110.141 81.5752 110.141 77.9524C110.141 60.3364 110.141 42.6926 110.141 25.0766C110.141 21.5091 107.812 19.3797 103.94 19.3797C95.8944 19.3797 87.8486 19.3797 79.7725 19.3797C77.6249 19.3797 76.5662 18.6883 75.9008 16.8355C74.9933 14.3742 74.1161 11.9129 73.2087 9.4793C72.513 7.59878 71.5149 6.93507 69.337 6.93507C62.3498 6.93507 55.3626 6.93507 48.3452 6.93507C46.2581 6.93507 45.1994 7.62644 44.534 9.39634C43.6265 11.8023 42.7493 14.2359 41.8722 16.6695C41.116 18.7436 40.148 19.3797 37.7887 19.3797C29.8639 19.3797 21.9087 19.3797 13.9838 19.3797C9.87016 19.3797 7.60159 21.4538 7.60159 25.2148C7.60159 42.7479 7.60159 60.2534 7.60159 77.7865C7.60159 81.6305 9.83992 83.6769 14.0443 83.6769C28.9564 83.6769 43.8988 83.6769 58.8411 83.6769ZM23.6933 13.1297C23.6933 11.3875 23.6933 9.7282 23.6933 8.09657C23.6933 7.4052 23.2699 6.99038 22.5137 6.96272C21.0315 6.93507 19.5797 6.87976 18.0975 6.99038C17.6741 7.01803 16.9784 7.59878 16.9481 7.95829C16.8271 9.67289 16.8876 11.3875 16.8876 13.1297C19.2167 13.1297 21.3945 13.1297 23.6933 13.1297Z" fill="white" fill-opacity="0.9"/>
<path d="M58.8714 77.454C41.9932 77.454 28.2003 64.8711 28.2305 49.4121C28.2608 34.0084 41.9932 21.4808 58.8411 21.4531C75.7496 21.4531 89.5122 34.036 89.482 49.495C89.482 64.8987 75.7496 77.454 58.8714 77.454ZM82.6763 49.4397C82.6763 37.4376 71.9686 27.6754 58.8714 27.6754C45.7439 27.6754 35.0665 37.4376 35.0362 49.4121C35.006 61.4419 45.7439 71.2316 58.9016 71.2316C72.0291 71.2316 82.7065 61.4419 82.6763 49.4397Z" fill="white" fill-opacity="0.9"/>
<path d="M21.4239 31.8236C20.3047 31.8236 19.1553 31.8512 18.0362 31.8236C16.1003 31.7683 14.6484 30.4132 14.6484 28.7263C14.6484 27.0393 16.1003 25.6289 18.0059 25.6013C20.3047 25.5736 22.6036 25.546 24.9024 25.6013C26.808 25.6289 28.2599 27.0393 28.2599 28.7263C28.2296 30.3855 26.808 31.713 24.9629 31.7959C23.7832 31.8512 22.6036 31.8236 21.4239 31.8236Z" fill="white" fill-opacity="0.9"/>
<path d="M99.6768 31.8233C97.8317 31.8233 96.2891 30.4129 96.2891 28.726C96.2891 27.0114 97.8922 25.5733 99.7675 25.601C101.613 25.6286 103.125 27.0667 103.095 28.7536C103.065 30.4406 101.522 31.8509 99.6768 31.8233Z" fill="white" fill-opacity="0.9"/>
<path d="M75.8724 49.4947C75.8422 58.0677 68.1895 65.009 58.8128 65.009C49.4662 65.009 41.8136 57.9847 41.8438 49.4118C41.8741 40.8388 49.5267 33.8975 58.9035 33.8975C68.2803 33.9251 75.9027 40.9218 75.8724 49.4947ZM58.9035 40.1198C53.3077 40.1198 48.7101 44.268 48.6798 49.3841C48.6496 54.5555 53.2472 58.7867 58.8733 58.7867C64.4691 58.7867 69.0667 54.6385 69.097 49.5224C69.097 44.3786 64.5296 40.1474 58.9035 40.1198Z" fill="white" fill-opacity="0.9"/>
</svg>
